<svg preserveAspectRatio="none" overflow="visible" style="display: block;" width="262.926" height="36.712" viewBox="0 0 262.926 36.712" fill="none" xmlns="http://www.w3.org/2000/svg">
<g id="title">
<path id="Vector" d="M262.926 8.58L262.718 8.372C261.851 7.67866 261.002 7.00267 260.17 6.344C259.372 5.65067 258.523 5.02667 257.622 4.472C256.235 3.77867 254.692 3.20667 252.994 2.756C251.295 2.27067 249.406 1.94133 247.326 1.768C247.256 1.768 247.187 1.768 247.118 1.768C246.667 1.768 246.32 1.95867 246.078 2.34C245.904 2.61733 245.731 2.99867 245.558 3.484C245.419 3.96933 245.35 4.66267 245.35 5.564V32.708C245.35 33.6093 245.419 34.32 245.558 34.84C245.731 35.3253 245.922 35.7067 246.13 35.984C246.338 36.296 246.58 36.4867 246.858 36.556H239.266C239.543 36.4867 239.803 36.296 240.046 35.984C240.219 35.7067 240.375 35.3253 240.514 34.84C240.687 34.32 240.774 33.6093 240.774 32.708V5.564C240.774 5.252 240.756 4.87067 240.722 4.42C240.687 3.96933 240.6 3.55333 240.462 3.172C240.323 2.756 240.115 2.40933 239.838 2.132C239.595 1.85467 239.248 1.716 238.798 1.716C236.787 1.924 235.123 2.16667 233.806 2.444C232.523 2.72133 231.344 3.10267 230.27 3.588C229.195 4.07333 228.138 4.69733 227.098 5.46C226.092 6.22267 224.862 7.19333 223.406 8.372L223.198 8.58L225.486 0.415998C225.694 0.797332 225.936 1.144 226.214 1.456C226.491 1.73333 226.82 1.99333 227.202 2.236C227.583 2.444 228.051 2.548 228.606 2.548C229.056 2.548 229.542 2.444 230.062 2.236C231.518 1.64667 233.303 1.16133 235.418 0.779999C237.532 0.363998 240.063 0.155998 243.01 0.155998H243.114C248.175 0.155998 252.491 0.849332 256.062 2.236C256.547 2.40933 257.05 2.496 257.57 2.496C258.124 2.496 258.592 2.392 258.974 2.184C259.355 1.976 259.667 1.73333 259.91 1.456C260.222 1.144 260.464 0.797332 260.638 0.415998L262.926 8.58Z" fill="#161513"/>
<path id="Vector_2" d="M208.221 35.308C210.821 35.308 212.97 34.5627 214.669 33.072C216.368 31.5813 217.668 29.588 218.569 27.092L221.793 29.172C220.233 31.4253 218.274 33.2453 215.917 34.632C213.594 36.0187 211.029 36.712 208.221 36.712C205.898 36.712 203.714 36.2267 201.669 35.256C199.658 34.2853 197.89 32.968 196.365 31.304C194.84 29.64 193.626 27.6987 192.725 25.48C191.858 23.2267 191.425 20.852 191.425 18.356C191.425 15.86 191.858 13.5027 192.725 11.284C193.626 9.03067 194.84 7.072 196.365 5.408C197.89 3.744 199.658 2.42667 201.669 1.456C203.714 0.485333 205.898 0 208.221 0C211.029 0 213.594 0.693333 215.917 2.08C218.274 3.46667 220.233 5.28667 221.793 7.54L218.569 9.62C217.668 7.124 216.368 5.13067 214.669 3.64C212.97 2.14933 210.821 1.404 208.221 1.404C206.28 1.404 204.546 1.85466 203.021 2.756C201.496 3.62267 200.196 4.836 199.121 6.396C198.081 7.92133 197.284 9.70667 196.729 11.752C196.174 13.7973 195.897 15.9987 195.897 18.356C195.897 20.6787 196.174 22.88 196.729 24.96C197.284 27.0053 198.081 28.808 199.121 30.368C200.196 31.8933 201.496 33.1067 203.021 34.008C204.546 34.8747 206.28 35.308 208.221 35.308Z" fill="#161513"/>
<path id="Vector_3" d="M185.156 32.604C185.156 33.5053 185.225 34.2333 185.364 34.788C185.537 35.308 185.728 35.7067 185.936 35.984C186.144 36.296 186.387 36.4867 186.664 36.556H179.384C179.592 36.452 179.783 36.2267 179.956 35.88C180.129 35.6027 180.268 35.2213 180.372 34.736C180.476 34.2507 180.528 33.592 180.528 32.76V30.42C180.528 28.652 180.164 27.0227 179.436 25.532C178.708 24.0413 177.737 22.7587 176.524 21.684C175.345 20.5747 173.959 19.708 172.364 19.084C170.804 18.46 169.175 18.148 167.476 18.148C165.847 18.148 164.269 18.4253 162.744 18.98C161.253 19.5347 159.901 20.3147 158.688 21.32C157.509 22.3253 156.539 23.5387 155.776 24.96C155.013 26.3467 154.58 27.872 154.476 29.536V32.604C154.476 33.4707 154.528 34.164 154.632 34.684C154.736 35.204 154.875 35.6027 155.048 35.88C155.187 36.192 155.36 36.4173 155.568 36.556H151.564C151.841 36.4867 152.101 36.296 152.344 35.984C152.517 35.7067 152.673 35.308 152.812 34.788C152.985 34.2333 153.072 33.5053 153.072 32.604L153.124 31.356V29.484C153.263 25.9133 153.817 22.724 154.788 19.916C155.793 17.0733 157.076 14.5773 158.636 12.428C160.231 10.244 162.033 8.38933 164.044 6.864C166.055 5.304 168.135 4.03866 170.284 3.068C172.468 2.06266 174.635 1.33466 176.784 0.883998C178.968 0.398665 180.996 0.155998 182.868 0.155998H186.664C186.387 0.225332 186.144 0.416 185.936 0.728C185.728 1.00533 185.537 1.404 185.364 1.924C185.225 2.444 185.156 3.172 185.156 4.108V32.604ZM180.528 24.804L180.684 1.612C178.292 1.82 175.779 2.40933 173.144 3.38C170.509 4.316 167.996 5.668 165.604 7.436C163.212 9.204 161.08 11.4227 159.208 14.092C157.371 16.7267 156.053 19.8813 155.256 23.556C155.568 23.0707 155.88 22.568 156.192 22.048C156.539 21.528 156.937 21.06 157.388 20.644C158.74 19.396 160.283 18.4427 162.016 17.784C163.749 17.0907 165.569 16.744 167.476 16.744C168.828 16.744 170.163 16.9347 171.48 17.316C172.797 17.6627 174.028 18.2 175.172 18.928C176.351 19.6213 177.391 20.4707 178.292 21.476C179.228 22.4467 179.973 23.556 180.528 24.804Z" fill="#161513"/>
<path id="Vector_4" d="M149.96 8.58L149.752 8.372C148.885 7.67866 148.036 7.00267 147.204 6.344C146.407 5.65067 145.557 5.02667 144.656 4.472C143.269 3.77867 141.727 3.20667 140.028 2.756C138.329 2.27067 136.44 1.94133 134.36 1.768C134.291 1.768 134.221 1.768 134.152 1.768C133.701 1.768 133.355 1.95867 133.112 2.34C132.939 2.61733 132.765 2.99867 132.592 3.484C132.453 3.96933 132.384 4.66267 132.384 5.564V32.708C132.384 33.6093 132.453 34.32 132.592 34.84C132.765 35.3253 132.956 35.7067 133.164 35.984C133.372 36.296 133.615 36.4867 133.892 36.556H126.3C126.577 36.4867 126.837 36.296 127.08 35.984C127.253 35.7067 127.409 35.3253 127.548 34.84C127.721 34.32 127.808 33.6093 127.808 32.708V5.564C127.808 5.252 127.791 4.87067 127.756 4.42C127.721 3.96933 127.635 3.55333 127.496 3.172C127.357 2.756 127.149 2.40933 126.872 2.132C126.629 1.85467 126.283 1.716 125.832 1.716C123.821 1.924 122.157 2.16667 120.84 2.444C119.557 2.72133 118.379 3.10267 117.304 3.588C116.229 4.07333 115.172 4.69733 114.132 5.46C113.127 6.22267 111.896 7.19333 110.44 8.372L110.232 8.58L112.52 0.415998C112.728 0.797332 112.971 1.144 113.248 1.456C113.525 1.73333 113.855 1.99333 114.236 2.236C114.617 2.444 115.085 2.548 115.64 2.548C116.091 2.548 116.576 2.444 117.096 2.236C118.552 1.64667 120.337 1.16133 122.452 0.779999C124.567 0.363998 127.097 0.155998 130.044 0.155998H130.148C135.209 0.155998 139.525 0.849332 143.096 2.236C143.581 2.40933 144.084 2.496 144.604 2.496C145.159 2.496 145.627 2.392 146.008 2.184C146.389 1.976 146.701 1.73333 146.944 1.456C147.256 1.144 147.499 0.797332 147.672 0.415998L149.96 8.58Z" fill="#161513"/>
<path id="Vector_5" d="M105.664 32.604C105.664 33.5053 105.75 34.2333 105.924 34.788C106.097 35.308 106.27 35.7067 106.444 35.984C106.686 36.296 106.946 36.4867 107.224 36.556H103.688L103.376 36.504V36.556C102.613 36.556 101.712 36.452 100.672 36.244C99.6663 36.036 98.6263 35.6893 97.5516 35.204C96.4769 34.7187 95.4196 34.0947 94.3796 33.332C93.3396 32.5693 92.4209 31.6507 91.6236 30.576C90.8263 29.4667 90.1676 28.184 89.6476 26.728C89.1623 25.272 88.9196 23.608 88.9196 21.736V14.976C88.9196 12.792 88.5729 10.92 87.8796 9.36C87.1863 7.8 86.3023 6.48267 85.2276 5.408C84.1876 4.33333 83.0436 3.50133 81.7956 2.912C80.5476 2.288 79.3516 1.85467 78.2076 1.612V32.76C78.2423 33.6613 78.3116 34.3547 78.4156 34.84C78.5196 35.3253 78.6409 35.7067 78.7796 35.984C78.9529 36.296 79.1436 36.4867 79.3516 36.556H72.0716C72.3489 36.4867 72.6089 36.296 72.8516 35.984C73.0596 35.7067 73.2329 35.308 73.3716 34.788C73.5449 34.2333 73.6316 33.5053 73.6316 32.604V4.108C73.6316 3.172 73.5449 2.444 73.3716 1.924C73.2329 1.404 73.0596 1.00533 72.8516 0.728C72.6089 0.416 72.3489 0.225332 72.0716 0.155998H75.9196C77.2023 0.155998 78.6583 0.398665 80.2876 0.883998C81.9516 1.33466 83.5116 2.132 84.9676 3.276C86.4583 4.42 87.7063 5.94533 88.7116 7.852C89.7516 9.724 90.2716 12.0813 90.2716 14.924V21.736C90.2716 23.8507 90.6356 25.7053 91.3636 27.3C92.1263 28.86 93.0623 30.1947 94.1716 31.304C95.2809 32.3787 96.4596 33.228 97.7076 33.852C98.9556 34.476 100.082 34.892 101.088 35.1V4.108C101.088 3.172 101.018 2.444 100.88 1.924C100.776 1.404 100.654 1.00533 100.516 0.728C100.308 0.416 100.1 0.225332 99.8916 0.155998H107.224C106.946 0.225332 106.686 0.416 106.444 0.728C106.27 1.00533 106.097 1.404 105.924 1.924C105.75 2.444 105.664 3.172 105.664 4.108V32.604Z" fill="#161513"/>
<path id="Vector_6" d="M50.4928 0.0519993C52.8155 0.0519993 54.9821 0.537333 56.9928 1.508C59.0381 2.47867 60.8235 3.796 62.3488 5.46C63.8741 7.124 65.0701 9.06533 65.9368 11.284C66.8381 13.5027 67.2888 15.86 67.2888 18.356C67.2888 20.852 66.8381 23.2093 65.9368 25.428C65.0701 27.6467 63.8741 29.588 62.3488 31.252C60.8235 32.916 59.0381 34.2333 56.9928 35.204C54.9821 36.1747 52.8155 36.66 50.4928 36.66C48.1701 36.66 45.9861 36.1747 43.9408 35.204C41.8955 34.2333 40.1101 32.916 38.5848 31.252C37.0595 29.588 35.8461 27.6467 34.9448 25.428C34.0781 23.2093 33.6448 20.852 33.6448 18.356C33.6448 15.86 34.0781 13.5027 34.9448 11.284C35.8461 9.06533 37.0595 7.124 38.5848 5.46C40.1101 3.796 41.8955 2.47867 43.9408 1.508C45.9861 0.537333 48.1701 0.0519993 50.4928 0.0519993ZM38.5848 18.356C38.5848 20.6787 38.8275 22.88 39.3128 24.96C39.8328 27.0053 40.5781 28.7907 41.5488 30.316C42.5541 31.8413 43.8021 33.0547 45.2928 33.956C46.7835 34.8227 48.5168 35.256 50.4928 35.256C52.4688 35.256 54.2021 34.8227 55.6928 33.956C57.1835 33.0547 58.4141 31.8413 59.3848 30.316C60.3901 28.7907 61.1355 27.0053 61.6208 24.96C62.1061 22.88 62.3488 20.6787 62.3488 18.356C62.3488 15.9987 62.1061 13.7973 61.6208 11.752C61.1355 9.70667 60.3901 7.92133 59.3848 6.396C58.4141 4.87067 57.1835 3.67467 55.6928 2.808C54.2021 1.90667 52.4688 1.456 50.4928 1.456C48.5168 1.456 46.7835 1.90667 45.2928 2.808C43.8021 3.67467 42.5541 4.87067 41.5488 6.396C40.5781 7.92133 39.8328 9.70667 39.3128 11.752C38.8275 13.7973 38.5848 15.9987 38.5848 18.356Z" fill="#161513"/>
<path id="Vector_7" d="M16.796 35.308C19.396 35.308 21.5453 34.5627 23.244 33.072C24.9427 31.5813 26.2427 29.588 27.144 27.092L30.368 29.172C28.808 31.4253 26.8493 33.2453 24.492 34.632C22.1693 36.0187 19.604 36.712 16.796 36.712C14.4733 36.712 12.2893 36.2267 10.244 35.256C8.23333 34.2853 6.46533 32.968 4.94 31.304C3.41467 29.64 2.20133 27.6987 1.3 25.48C0.433333 23.2267 0 20.852 0 18.356C0 15.86 0.433333 13.5027 1.3 11.284C2.20133 9.03067 3.41467 7.072 4.94 5.408C6.46533 3.744 8.23333 2.42667 10.244 1.456C12.2893 0.485333 14.4733 0 16.796 0C19.604 0 22.1693 0.693333 24.492 2.08C26.8493 3.46667 28.808 5.28667 30.368 7.54L27.144 9.62C26.2427 7.124 24.9427 5.13067 23.244 3.64C21.5453 2.14933 19.396 1.404 16.796 1.404C14.8547 1.404 13.1213 1.85466 11.596 2.756C10.0707 3.62267 8.77067 4.836 7.696 6.396C6.656 7.92133 5.85867 9.70667 5.304 11.752C4.74933 13.7973 4.472 15.9987 4.472 18.356C4.472 20.6787 4.74933 22.88 5.304 24.96C5.85867 27.0053 6.656 28.808 7.696 30.368C8.77067 31.8933 10.0707 33.1067 11.596 34.008C13.1213 34.8747 14.8547 35.308 16.796 35.308Z" fill="#161513"/>
</g>
</svg>
